<?xml version="1.0" encoding="utf-8"?>
<!-- Generator: Adobe Illustrator 26.0.3, SVG Export Plug-In . SVG Version: 6.00 Build 0)  -->
<svg version="1.1" id="Layer_1" xmlns="http://www.w3.org/2000/svg" xmlns:xlink="http://www.w3.org/1999/xlink" x="0px" y="0px"
	 width="330px" height="30px" viewBox="0 0 330 30" enable-background="new 0 0 330 30" xml:space="preserve">
<g>
	<g>
		<path fill="#FFFFFF" d="M7.69,20.11c-1.02,0-1.97-0.13-2.84-0.38s-1.73-0.67-2.55-1.26v-3.44h2l0.33,2.23
			c0.36,0.26,0.81,0.47,1.34,0.62s1.11,0.24,1.73,0.24c0.61,0,1.12-0.09,1.53-0.26c0.41-0.17,0.73-0.42,0.95-0.73
			s0.33-0.69,0.33-1.12c0-0.4-0.1-0.75-0.29-1.06s-0.51-0.58-0.95-0.83s-1.05-0.47-1.8-0.67c-1.11-0.3-2.05-0.66-2.79-1.07
			c-0.75-0.41-1.31-0.9-1.69-1.48C2.59,10.34,2.4,9.66,2.4,8.88c0-0.8,0.22-1.51,0.65-2.12s1.04-1.1,1.81-1.46s1.66-0.54,2.68-0.54
			c1.11-0.01,2.09,0.13,2.94,0.43c0.85,0.3,1.57,0.69,2.16,1.18v3.21h-1.96L10.3,7.49c-0.28-0.2-0.64-0.37-1.09-0.51
			C8.76,6.84,8.24,6.77,7.63,6.77c-0.52,0-0.98,0.09-1.37,0.26S5.55,7.44,5.32,7.75S4.98,8.43,4.98,8.86c0,0.38,0.1,0.7,0.3,0.98
			s0.53,0.54,0.99,0.76c0.46,0.23,1.09,0.46,1.89,0.69c1.62,0.43,2.85,1.03,3.68,1.78s1.25,1.73,1.25,2.9
			c0,0.83-0.22,1.55-0.67,2.17c-0.45,0.62-1.08,1.1-1.89,1.44C9.72,19.94,8.78,20.11,7.69,20.11z"/>
		<path fill="#FFFFFF" d="M18.7,20.09c-0.94,0-1.68-0.26-2.2-0.79c-0.53-0.53-0.79-1.38-0.79-2.54v-6.11h-1.62V8.8h1.62v-2.7h2.57
			v2.7h2.19v1.85h-2.19v6.11c0,0.47,0.1,0.82,0.29,1.03c0.2,0.22,0.46,0.32,0.79,0.32c0.19,0,0.41-0.02,0.64-0.05
			c0.24-0.03,0.43-0.07,0.57-0.1l0.27,1.81c-0.3,0.09-0.64,0.16-1.03,0.23C19.43,20.06,19.06,20.09,18.7,20.09z"/>
		<path fill="#FFFFFF" d="M27.01,20.11c-1.05,0-1.96-0.23-2.73-0.7c-0.78-0.47-1.38-1.12-1.8-1.94c-0.43-0.83-0.64-1.77-0.64-2.84
			V14.2c0-1.08,0.21-2.04,0.63-2.88c0.42-0.84,1-1.5,1.74-1.99s1.58-0.73,2.52-0.73c1,0,1.85,0.2,2.53,0.6
			c0.68,0.4,1.19,0.98,1.54,1.72c0.35,0.74,0.52,1.63,0.52,2.67v1.48H24.5l-0.02,0.05c0.03,0.58,0.15,1.1,0.36,1.55
			c0.22,0.45,0.52,0.81,0.92,1.07c0.4,0.26,0.89,0.39,1.46,0.39c0.6,0,1.15-0.08,1.64-0.25s0.95-0.4,1.36-0.7l0.81,1.62
			c-0.44,0.37-0.99,0.68-1.67,0.93S27.91,20.11,27.01,20.11z M24.55,13.25h4.3v-0.27c0-0.49-0.07-0.91-0.22-1.28
			s-0.38-0.65-0.69-0.86c-0.31-0.21-0.71-0.31-1.18-0.31c-0.42,0-0.78,0.12-1.1,0.35s-0.57,0.55-0.75,0.95
			c-0.19,0.4-0.32,0.85-0.38,1.36L24.55,13.25z"/>
		<path fill="#FFFFFF" d="M37.11,19.9l-3.6-9.33l-1.18-0.17V8.8h5.08v1.59l-1.28,0.21l2,5.57l0.27,0.88h0.06l0.31-0.88l2.02-5.57
			l-1.4-0.21V8.8h5.07v1.59l-1.21,0.18l-3.61,9.32H37.11z"/>
		<path fill="#FFFFFF" d="M50.59,20.11c-1.05,0-1.96-0.23-2.73-0.7c-0.78-0.47-1.38-1.12-1.8-1.94c-0.43-0.83-0.64-1.77-0.64-2.84
			V14.2c0-1.08,0.21-2.04,0.63-2.88c0.42-0.84,1-1.5,1.74-1.99S49.36,8.6,50.3,8.6c1,0,1.85,0.2,2.53,0.6
			c0.68,0.4,1.19,0.98,1.54,1.72c0.35,0.74,0.52,1.63,0.52,2.67v1.48h-6.81l-0.02,0.05c0.03,0.58,0.15,1.1,0.36,1.55
			c0.22,0.45,0.52,0.81,0.92,1.07c0.4,0.26,0.89,0.39,1.46,0.39c0.6,0,1.15-0.08,1.64-0.25s0.95-0.4,1.36-0.7l0.81,1.62
			c-0.44,0.37-0.99,0.68-1.67,0.93S51.49,20.11,50.59,20.11z M48.13,13.25h4.3v-0.27c0-0.49-0.07-0.91-0.22-1.28
			s-0.38-0.65-0.69-0.86c-0.31-0.21-0.71-0.31-1.18-0.31c-0.42,0-0.78,0.12-1.1,0.35s-0.57,0.55-0.75,0.95
			c-0.19,0.4-0.32,0.85-0.38,1.36L48.13,13.25z"/>
		<path fill="#FFFFFF" d="M56.29,19.9v-1.58l1.54-0.31V10.7l-1.62-0.31V8.8h4l0.13,1.61c0.37-0.57,0.83-1.02,1.38-1.34
			c0.55-0.32,1.17-0.48,1.87-0.48c1.14,0,2.03,0.35,2.67,1.05c0.64,0.7,0.95,1.8,0.95,3.29v5.08l1.54,0.31v1.58h-5.57v-1.58
			l1.45-0.31v-5.06c0-0.84-0.17-1.44-0.5-1.79c-0.33-0.35-0.83-0.53-1.5-0.53c-0.5,0-0.94,0.11-1.31,0.33
			c-0.37,0.22-0.68,0.53-0.91,0.93v6.11l1.4,0.31v1.58H56.29z"/>
		<path fill="#FFFFFF" d="M79.86,20.11c-0.95,0-1.79-0.17-2.53-0.51c-0.74-0.34-1.32-0.86-1.75-1.56c-0.43-0.7-0.67-1.58-0.71-2.64
			l0.02-0.06h2.45c0.04,0.99,0.26,1.7,0.67,2.12c0.4,0.42,0.96,0.63,1.67,0.63c0.47,0,0.88-0.1,1.21-0.31s0.59-0.5,0.77-0.88
			c0.18-0.38,0.27-0.84,0.27-1.37V6.86l-2-0.3v-1.6h6.21v1.59l-1.64,0.31v8.65c0,0.93-0.18,1.74-0.53,2.43s-0.88,1.22-1.56,1.6
			C81.71,19.92,80.86,20.11,79.86,20.11z"/>
		<path fill="#FFFFFF" d="M90.94,20.11c-1.13,0-2.01-0.29-2.64-0.87s-0.94-1.38-0.94-2.4c0-1.05,0.43-1.89,1.28-2.54
			s2.07-0.97,3.66-0.97H94v-0.93c0-0.59-0.18-1.06-0.53-1.4c-0.35-0.35-0.86-0.52-1.53-0.52c-0.38,0-0.72,0.05-1.02,0.14
			c-0.29,0.09-0.56,0.22-0.79,0.39l-0.24,1.5H88l-0.02-2.74c0.55-0.36,1.16-0.64,1.83-0.85c0.67-0.21,1.42-0.31,2.24-0.31
			c1.41,0,2.52,0.33,3.33,0.99c0.81,0.66,1.22,1.6,1.22,2.84v4.89c0,0.15,0,0.3,0.01,0.44c0,0.14,0.01,0.28,0.03,0.42l1.13,0.14
			v1.58h-3.37c-0.07-0.24-0.13-0.47-0.19-0.7s-0.1-0.45-0.13-0.68c-0.37,0.46-0.82,0.85-1.34,1.14
			C92.19,19.96,91.6,20.11,90.94,20.11z M91.52,18.11c0.52,0,1-0.12,1.46-0.36c0.45-0.24,0.79-0.55,1.02-0.92v-1.86h-1.72
			c-0.77,0-1.36,0.18-1.75,0.54c-0.39,0.36-0.59,0.78-0.59,1.26c0,0.43,0.14,0.76,0.41,0.99S91.01,18.11,91.52,18.11z"/>
		<path fill="#FFFFFF" d="M98.94,19.9v-1.58l1.55-0.31V10.7l-1.63-0.31V8.8h4l0.12,1.46c0.36-0.53,0.81-0.93,1.36-1.23
			c0.54-0.29,1.17-0.44,1.89-0.44c0.72,0,1.34,0.16,1.86,0.49c0.52,0.32,0.91,0.81,1.17,1.47c0.34-0.61,0.79-1.09,1.35-1.44
			c0.56-0.35,1.21-0.52,1.96-0.52c1.11,0,1.99,0.38,2.63,1.14c0.64,0.76,0.96,1.91,0.96,3.45v4.83l1.55,0.31v1.58h-5.59v-1.58
			l1.46-0.31v-4.84c0-0.94-0.16-1.59-0.47-1.97s-0.78-0.56-1.38-0.56c-0.57,0-1.03,0.18-1.4,0.54c-0.37,0.36-0.6,0.82-0.71,1.38
			v5.44l1.4,0.31v1.58h-5.38v-1.58l1.4-0.31v-4.84c0-0.9-0.16-1.55-0.48-1.94c-0.32-0.39-0.79-0.59-1.39-0.59
			c-0.51,0-0.93,0.1-1.28,0.31c-0.35,0.21-0.62,0.5-0.83,0.87v6.19l1.45,0.31v1.58H98.94z"/>
		<path fill="#FFFFFF" d="M124.12,20.11c-1.05,0-1.96-0.23-2.73-0.7c-0.78-0.47-1.38-1.12-1.8-1.94c-0.43-0.83-0.64-1.77-0.64-2.84
			V14.2c0-1.08,0.21-2.04,0.63-2.88c0.42-0.84,1-1.5,1.74-1.99s1.58-0.73,2.52-0.73c1,0,1.85,0.2,2.53,0.6
			c0.68,0.4,1.19,0.98,1.54,1.72c0.35,0.74,0.52,1.63,0.52,2.67v1.48h-6.81l-0.02,0.05c0.03,0.58,0.15,1.1,0.36,1.55
			c0.22,0.45,0.52,0.81,0.92,1.07c0.4,0.26,0.89,0.39,1.46,0.39c0.6,0,1.15-0.08,1.64-0.25s0.95-0.4,1.36-0.7l0.81,1.62
			c-0.44,0.37-0.99,0.68-1.67,0.93S125.02,20.11,124.12,20.11z M121.66,13.25h4.3v-0.27c0-0.49-0.07-0.91-0.22-1.28
			s-0.38-0.65-0.69-0.86c-0.31-0.21-0.71-0.31-1.18-0.31c-0.42,0-0.78,0.12-1.1,0.35s-0.57,0.55-0.75,0.95
			c-0.19,0.4-0.32,0.85-0.38,1.36L121.66,13.25z"/>
		<path fill="#FFFFFF" d="M134.54,20.11c-0.79,0-1.53-0.08-2.22-0.23c-0.69-0.15-1.38-0.38-2.07-0.68l-0.03-2.93h1.86l0.39,1.6
			c0.29,0.13,0.6,0.23,0.91,0.3c0.31,0.07,0.66,0.11,1.04,0.11c0.74,0,1.26-0.13,1.56-0.39c0.3-0.26,0.46-0.58,0.46-0.96
			c0-0.37-0.16-0.69-0.48-0.95c-0.32-0.26-0.92-0.49-1.82-0.68c-1.33-0.29-2.3-0.71-2.93-1.26c-0.62-0.55-0.94-1.27-0.94-2.15
			c0-0.61,0.16-1.16,0.49-1.65s0.8-0.89,1.44-1.18c0.63-0.3,1.41-0.45,2.33-0.45c0.84,0,1.59,0.09,2.24,0.26
			c0.65,0.17,1.21,0.41,1.67,0.69l0.06,2.82h-1.84l-0.32-1.47c-0.21-0.15-0.46-0.27-0.74-0.35s-0.6-0.12-0.96-0.12
			c-0.57,0-1.02,0.12-1.34,0.37c-0.33,0.25-0.49,0.56-0.49,0.94c0,0.22,0.05,0.42,0.16,0.59c0.11,0.18,0.31,0.34,0.62,0.49
			c0.3,0.15,0.75,0.29,1.34,0.43c1.44,0.33,2.47,0.77,3.1,1.31s0.93,1.25,0.93,2.14c0,0.99-0.36,1.8-1.09,2.44
			S136.03,20.11,134.54,20.11z"/>
		<path fill="#FFFFFF" d="M145.6,19.9v-1.58l1.64-0.32V6.88l-1.64-0.33V4.97h1.64h4.61c1.33,0,2.5,0.31,3.5,0.94
			c1,0.63,1.78,1.49,2.34,2.59s0.84,2.36,0.84,3.78v0.3c0,1.4-0.27,2.65-0.82,3.76c-0.55,1.1-1.32,1.97-2.31,2.6
			c-0.99,0.63-2.15,0.95-3.48,0.95H145.6z M149.83,17.91h1.97c0.88,0,1.62-0.23,2.24-0.7c0.62-0.47,1.09-1.1,1.42-1.91
			c0.33-0.8,0.49-1.71,0.49-2.71v-0.31c0-1.03-0.16-1.95-0.49-2.74s-0.8-1.42-1.42-1.88s-1.37-0.69-2.24-0.69h-1.97V17.91z"/>
		<path fill="#FFFFFF" d="M165.15,20.11c-1.05,0-1.96-0.23-2.73-0.7c-0.78-0.47-1.38-1.12-1.8-1.94c-0.43-0.83-0.64-1.77-0.64-2.84
			V14.2c0-1.08,0.21-2.04,0.63-2.88c0.42-0.84,1-1.5,1.74-1.99s1.58-0.73,2.52-0.73c1,0,1.85,0.2,2.53,0.6
			c0.68,0.4,1.19,0.98,1.54,1.72c0.35,0.74,0.52,1.63,0.52,2.67v1.48h-6.81l-0.02,0.05c0.03,0.58,0.15,1.1,0.36,1.55
			c0.22,0.45,0.52,0.81,0.92,1.07c0.4,0.26,0.89,0.39,1.46,0.39c0.6,0,1.15-0.08,1.64-0.25s0.95-0.4,1.36-0.7l0.81,1.62
			c-0.44,0.37-0.99,0.68-1.67,0.93S166.05,20.11,165.15,20.11z M162.69,13.25h4.3v-0.27c0-0.49-0.07-0.91-0.22-1.28
			s-0.38-0.65-0.69-0.86c-0.31-0.21-0.71-0.31-1.18-0.31c-0.42,0-0.78,0.12-1.1,0.35s-0.57,0.55-0.75,0.95
			c-0.19,0.4-0.32,0.85-0.38,1.36L162.69,13.25z"/>
		<path fill="#FFFFFF" d="M170.85,19.9v-1.58l1.54-0.31V10.7l-1.62-0.31V8.8h4l0.13,1.61c0.37-0.57,0.83-1.02,1.38-1.34
			c0.55-0.32,1.17-0.48,1.87-0.48c1.14,0,2.03,0.35,2.67,1.05c0.64,0.7,0.95,1.8,0.95,3.29v5.08l1.54,0.31v1.58h-5.57v-1.58
			l1.45-0.31v-5.06c0-0.84-0.17-1.44-0.5-1.79c-0.33-0.35-0.83-0.53-1.5-0.53c-0.5,0-0.94,0.11-1.31,0.33
			c-0.37,0.22-0.67,0.53-0.91,0.93v6.11l1.4,0.31v1.58H170.85z"/>
		<path fill="#FFFFFF" d="M188.27,20.09c-0.94,0-1.68-0.26-2.2-0.79c-0.53-0.53-0.79-1.38-0.79-2.54v-6.11h-1.62V8.8h1.62v-2.7h2.57
			v2.7h2.19v1.85h-2.19v6.11c0,0.47,0.1,0.82,0.29,1.03c0.2,0.22,0.46,0.32,0.79,0.32c0.19,0,0.41-0.02,0.64-0.05
			c0.24-0.03,0.43-0.07,0.57-0.1l0.27,1.81c-0.3,0.09-0.64,0.16-1.03,0.23C189,20.06,188.62,20.09,188.27,20.09z"/>
		<path fill="#FFFFFF" d="M197.54,14.54v-2h5.46v2H197.54z"/>
	</g>
	<g>
		<defs>
			<path id="SVGID_1_" d="M217.49,20.97c-1.11,0-2.1-0.2-2.96-0.61c-0.86-0.41-1.53-0.99-2.01-1.76c-0.48-0.77-0.72-1.69-0.72-2.78
				v-8.1l-1.63-0.31V5.83h5.83v1.59l-1.63,0.31v8.1c0,0.69,0.13,1.27,0.39,1.74c0.26,0.47,0.63,0.82,1.1,1.05s1.02,0.35,1.65,0.35
				c0.65,0,1.21-0.12,1.69-0.35s0.84-0.58,1.11-1.05s0.4-1.05,0.4-1.74v-8.1l-1.63-0.31V5.83h5.83v1.59l-1.62,0.31v8.1
				c0,1.1-0.24,2.03-0.72,2.8c-0.48,0.77-1.16,1.35-2.02,1.75C219.65,20.77,218.64,20.97,217.49,20.97z M226.1,20.76v-1.58
				l1.63-0.31V7.72l-1.63-0.31V5.83h5.83v1.59l-1.62,0.31v11.15l1.62,0.31v1.58H226.1z M238.48,20.76v-1.58l1.63-0.31V7.72
				l-1.63-0.31V5.83h11.37v3.85h-2.01l-0.17-1.86h-4.97v4.22h5.24v2h-5.24v4.75h5.25l0.17-1.9h1.99v3.87H238.48z M251.83,20.76
				v-1.58l1.54-0.31v-7.31l-1.62-0.31V9.66h4l0.13,1.61c0.37-0.57,0.83-1.02,1.38-1.34c0.55-0.32,1.17-0.48,1.87-0.48
				c1.14,0,2.03,0.35,2.67,1.05c0.64,0.7,0.95,1.8,0.95,3.29v5.08l1.54,0.31v1.58h-5.57v-1.58l1.45-0.31v-5.06
				c0-0.84-0.17-1.44-0.5-1.79c-0.33-0.35-0.83-0.53-1.5-0.53c-0.5,0-0.94,0.11-1.31,0.33c-0.37,0.22-0.68,0.53-0.91,0.93v6.11
				l1.4,0.31v1.58H251.83z M270.33,25.24c-0.55,0-1.15-0.07-1.82-0.22c-0.67-0.15-1.25-0.35-1.76-0.61l0.53-1.89
				c0.44,0.2,0.92,0.36,1.45,0.48s1.03,0.18,1.5,0.18c0.85,0,1.47-0.23,1.86-0.7c0.39-0.47,0.59-1.13,0.59-1.98v-0.87
				c-0.34,0.44-0.75,0.77-1.22,1c-0.47,0.23-1.01,0.34-1.62,0.34c-0.9,0-1.68-0.23-2.33-0.68s-1.15-1.08-1.5-1.9
				s-0.52-1.76-0.52-2.83v-0.22c0-1.18,0.17-2.21,0.52-3.1s0.84-1.57,1.49-2.06c0.65-0.49,1.42-0.74,2.31-0.74
				c0.68,0,1.26,0.14,1.76,0.42c0.5,0.28,0.92,0.67,1.27,1.18l0.19-1.39h2.23v10.85c0,0.96-0.19,1.8-0.58,2.51
				c-0.39,0.71-0.95,1.25-1.69,1.64S271.37,25.24,270.33,25.24z M270.54,18.93c0.5,0,0.92-0.11,1.28-0.32s0.64-0.52,0.87-0.92v-4.94
				c-0.23-0.39-0.52-0.7-0.87-0.92s-0.78-0.33-1.26-0.33c-0.57,0-1.03,0.16-1.4,0.49c-0.37,0.33-0.64,0.78-0.81,1.35
				c-0.17,0.58-0.26,1.25-0.26,2.02v0.22c0,1.03,0.2,1.84,0.59,2.45C269.06,18.63,269.69,18.93,270.54,18.93z M274.92,11.61
				l-1.09-1.95h2.77v1.59L274.92,11.61z M277.48,20.76v-1.58l1.54-0.31v-7.31l-1.63-0.31V9.66h4.21v9.21l1.53,0.31v1.58H277.48z
				 M278.92,7.15V4.76h2.69v2.39H278.92z M284.23,20.76v-1.58l1.54-0.31v-7.31l-1.62-0.31V9.66h4l0.13,1.61
				c0.37-0.57,0.83-1.02,1.38-1.34c0.55-0.32,1.17-0.48,1.87-0.48c1.14,0,2.03,0.35,2.67,1.05c0.64,0.7,0.95,1.8,0.95,3.29v5.08
				l1.54,0.31v1.58h-5.57v-1.58l1.45-0.31v-5.06c0-0.84-0.17-1.44-0.5-1.79c-0.33-0.35-0.83-0.53-1.5-0.53
				c-0.5,0-0.94,0.11-1.31,0.33c-0.37,0.22-0.68,0.53-0.91,0.93v6.11l1.4,0.31v1.58H284.23z M303.05,20.97
				c-1.05,0-1.96-0.23-2.73-0.7c-0.78-0.47-1.38-1.12-1.8-1.94s-0.64-1.77-0.64-2.84v-0.43c0-1.08,0.21-2.04,0.63-2.88
				c0.42-0.84,1-1.5,1.74-1.99s1.58-0.73,2.52-0.73c1,0,1.85,0.2,2.53,0.6c0.68,0.4,1.19,0.98,1.54,1.72
				c0.35,0.74,0.52,1.63,0.52,2.67v1.48h-6.81l-0.02,0.05c0.03,0.58,0.15,1.1,0.36,1.55c0.22,0.45,0.52,0.81,0.92,1.07
				c0.4,0.26,0.89,0.39,1.46,0.39c0.6,0,1.15-0.08,1.64-0.25s0.95-0.4,1.36-0.7l0.81,1.62c-0.44,0.37-0.99,0.68-1.67,0.93
				S303.96,20.97,303.05,20.97z M300.59,14.11h4.3v-0.27c0-0.49-0.07-0.91-0.22-1.28s-0.38-0.65-0.69-0.86
				c-0.31-0.21-0.71-0.31-1.18-0.31c-0.42,0-0.78,0.12-1.1,0.35s-0.57,0.55-0.75,0.95c-0.19,0.4-0.32,0.85-0.38,1.36L300.59,14.11z
				 M314.03,20.97c-1.05,0-1.96-0.23-2.73-0.7c-0.78-0.47-1.38-1.12-1.8-1.94s-0.64-1.77-0.64-2.84v-0.43
				c0-1.08,0.21-2.04,0.63-2.88c0.42-0.84,1-1.5,1.74-1.99s1.58-0.73,2.52-0.73c1,0,1.85,0.2,2.53,0.6c0.68,0.4,1.19,0.98,1.54,1.72
				c0.35,0.74,0.52,1.63,0.52,2.67v1.48h-6.81l-0.02,0.05c0.03,0.58,0.15,1.1,0.36,1.55c0.22,0.45,0.52,0.81,0.92,1.07
				c0.4,0.26,0.89,0.39,1.46,0.39c0.6,0,1.15-0.08,1.64-0.25s0.95-0.4,1.36-0.7l0.81,1.62c-0.44,0.37-0.99,0.68-1.67,0.93
				S314.93,20.97,314.03,20.97z M311.57,14.11h4.3v-0.27c0-0.49-0.07-0.91-0.22-1.28s-0.38-0.65-0.69-0.86
				c-0.31-0.21-0.71-0.31-1.18-0.31c-0.42,0-0.78,0.12-1.1,0.35s-0.57,0.55-0.75,0.95c-0.19,0.4-0.32,0.85-0.38,1.36L311.57,14.11z
				 M319.91,20.76v-1.58l1.54-0.31v-7.31l-1.62-0.31V9.66h4l0.13,1.39l0.02,0.23c0.29-0.59,0.65-1.04,1.08-1.35
				c0.43-0.31,0.93-0.47,1.5-0.47c0.19,0,0.39,0.02,0.61,0.05c0.21,0.03,0.39,0.07,0.53,0.11l-0.3,2.39l-1.45-0.08
				c-0.47-0.03-0.86,0.06-1.16,0.28c-0.3,0.21-0.56,0.51-0.76,0.88v5.78l1.54,0.31v1.58H319.91z"/>
		</defs>
		<clipPath id="SVGID_00000004520342838805855360000007582462469128155297_">
			<use xlink:href="#SVGID_1_"  overflow="visible"/>
		</clipPath>
		
			<linearGradient id="SVGID_00000029017498962019639240000015863813924570983612_" gradientUnits="userSpaceOnUse" x1="209.167" y1="15.6926" x2="335.167" y2="15.6926">
			<stop  offset="0" style="stop-color:#F71735"/>
			<stop  offset="0.4705" style="stop-color:#22DFFC"/>
			<stop  offset="1" style="stop-color:#48E07E"/>
		</linearGradient>
		
			<rect x="206.41" y="-1.31" clip-path="url(#SVGID_00000004520342838805855360000007582462469128155297_)" fill="url(#SVGID_00000029017498962019639240000015863813924570983612_)" width="126" height="34"/>
		
			<rect x="206.41" y="-1.31" opacity="0.3" clip-path="url(#SVGID_00000004520342838805855360000007582462469128155297_)" fill="#FFFFFF" width="126" height="34"/>
	</g>
</g>
</svg>
